{
  "accessors": [
    {
      "bufferView": 2,
      "componentType": 5126,
      "count": 6098,
      "max": [
        0.2675600051879883,
        2.426527976989746,
        1.1832679510116577
      ],
      "min": [
        -0.33192500472068787,
        -0.350739985704422,
        0.001964000053703785
      ],
      "type": "VEC3"
    },
    {
      "bufferView": 2,
      "byteOffset": 73176,
      "componentType": 5126,
      "count": 6098,
      "max": [
        1.0,
        1.0,
        1.0
      ],
      "min": [
        -1.0,
        -1.0,
        -1.0
      ],
      "type": "VEC3"
    },
    {
      "bufferView": 1,
      "componentType": 5126,
      "count": 6098,
      "max": [
        0.8855119943618774,
        0.8833249807357788
      ],
      "min": [
        0.11319600045681,
        0.3568139970302582
      ],
      "type": "VEC2"
    },
    {
      "bufferView": 0,
      "componentType": 5125,
      "count": 30810,
      "type": "SCALAR"
    }
  ],
  "asset": {
    "extras": {
      "author": "Ivan Norman (https://sketchfab.com/vanidza)",
      "license": "CC-BY-NC-4.0 (http://creativecommons.org/licenses/by-nc/4.0/)",
      "source": "https://sketchfab.com/3d-models/cartoon-kids-16bd67d620a846b7abb9dfdbb3534f05",
      "title": "Cartoon kids"
    },
    "generator": "Sketchfab-12.66.0",
    "version": "2.0"
  },
  "bufferViews": [
    {
      "buffer": 0,
      "byteLength": 123240,
      "name": "floatBufferViews",
      "target": 34963
    },
    {
      "buffer": 0,
      "byteLength": 48784,
      "byteOffset": 123240,
      "byteStride": 8,
      "name": "floatBufferViews",
      "target": 34962
    },
    {
      "buffer": 0,
      "byteLength": 146352,
      "byteOffset": 172024,
      "byteStride": 12,
      "name": "floatBufferViews",
      "target": 34962
    }
  ],
  "buffers": [
    {
      "byteLength": 318376,
      "uri": "scene.bin"
    }
  ],
  "images": [
    {
      "uri": "textures/Kids_baseColor.png"
    }
  ],
  "materials": [
    {
      "doubleSided": true,
      "name": "Kids",
      "pbrMetallicRoughness": {
        "baseColorTexture": {
          "index": 0
        },
        "metallicFactor": 0.0,
        "roughnessFactor": 0.3
      }
    }
  ],
  "meshes": [
    {
      "name": "Object_0",
      "primitives": [
        {
          "attributes": {
            "NORMAL": 1,
            "POSITION": 0,
            "TEXCOORD_0": 2
          },
          "indices": 3,
          "material": 0,
          "mode": 4
        }
      ]
    }
  ],
  "nodes": [
    {
      "children": [
        1
      ],
      "matrix": [
        1.0,
        0.0,
        0.0,
        0.0,
        0.0,
        2.220446049250313e-16,
        -1.0,
        0.0,
        0.0,
        1.0,
        2.220446049250313e-16,
        0.0,
        0.0,
        0.0,
        0.0,
        1.0
      ],
      "name": "Sketchfab_model"
    },
    {
      "children": [
        2
      ],
      "name": "Kids.obj.cleaner.materialmerger.gles"
    },
    {
      "mesh": 0,
      "name": "Object_2"
    }
  ],
  "samplers": [
    {
      "magFilter": 9729,
      "minFilter": 9987,
      "wrapS": 10497,
      "wrapT": 10497
    }
  ],
  "scene": 0,
  "scenes": [
    {
      "name": "Sketchfab_Scene",
      "nodes": [
        0
      ]
    }
  ],
  "textures": [
    {
      "sampler": 0,
      "source": 0
    }
  ]
}
